<?xml version="1.0" encoding="UTF-8" standalone="no"?>
<svg
   xmlns:dc="http://purl.org/dc/elements/1.1/"
   xmlns:cc="http://creativecommons.org/ns#"
   xmlns:rdf="http://www.w3.org/1999/02/22-rdf-syntax-ns#"
   xmlns:svg="http://www.w3.org/2000/svg"
   xmlns="http://www.w3.org/2000/svg"
   xmlns:sodipodi="http://sodipodi.sourceforge.net/DTD/sodipodi-0.dtd"
   xmlns:inkscape="http://www.inkscape.org/namespaces/inkscape"
   width="100%"
   height="100%"
   viewBox="0 0 128 128"
   version="1.1"
   xml:space="preserve"
   style="fill-rule:evenodd;clip-rule:evenodd;stroke-linejoin:round;stroke-miterlimit:1.41421;"
   id="svg13"
   sodipodi:docname="audio_input_muted_local.svg"
   inkscape:version="0.92.4 (33fec40, 2019-01-16)"><metadata
   id="metadata19"><rdf:RDF><cc:Work
       rdf:about=""><dc:format>image/svg+xml</dc:format><dc:type
         rdf:resource="http://purl.org/dc/dcmitype/StillImage" /><dc:title></dc:title></cc:Work></rdf:RDF></metadata><defs
   id="defs17" /><sodipodi:namedview
   pagecolor="#ffffff"
   bordercolor="#666666"
   borderopacity="1"
   objecttolerance="10"
   gridtolerance="10"
   guidetolerance="10"
   inkscape:pageopacity="0"
   inkscape:pageshadow="2"
   inkscape:window-width="2560"
   inkscape:window-height="1412"
   id="namedview15"
   showgrid="false"
   inkscape:zoom="1.84375"
   inkscape:cx="64"
   inkscape:cy="64"
   inkscape:window-x="2560"
   inkscape:window-y="0"
   inkscape:window-maximized="1"
   inkscape:current-layer="svg13" />
  <rect
   id="input_muted_local"
   x="6.2399998"
   y="6.2400002"
   width="115.52"
   height="115.52"
   style="fill:none;stroke-width:0.90249997" />

  <path
   class="tsv-icon-base-fill"
   d="m 52.219667,113.51656 c -11.913,0 -23.3206,-0.0451 -34.7282,0 -2.18405,0 -2.79775,-0.69492 -2.7797,-2.82482 -0.05235,-9.30929 1.27072,-18.576158 3.925875,-27.499175 1.46205,-4.720075 4.5125,-8.420325 8.185675,-11.64225 9.33185,-8.1225 10.108,-12.635 3.438525,-23.167175 -4.96375,-7.8337 -4.5125,-15.7035 -0.6137,-23.5372 4.5125,-9.025 14.178275,-12.463525 25.170725,-9.413075 8.21275,2.283325 13.113325,9.69285 12.58085,19.430825 -0.153425,2.79775 1.886225,4.250775 2.9963,6.26335 2.2382,4.0432 1.2635,6.6424 -3.221925,6.254325 -8.3391,-0.722 -12.635,4.7291 -16.8948,10.080925 -3.61,4.5125 -3.05045,10.478025 0.9747,14.810025 3.276075,3.546825 6.62435,6.9673 10.108,10.30655 1.651575,1.5884 1.868175,2.7075 0.0722,4.359075 -2.7075,2.4187 -5.135225,5.063025 -7.680275,7.6171 -6.254325,6.2453 -6.741675,10.91122 -1.53425,18.96152 z"
   style="fill: white;fill-rule:nonzero;stroke-width:0.90249997"
   id="path3"
   inkscape:connector-curvature="0" />

  <path
   d="m 64.069492,55.06164 c 1.585693,0.231942 3.02518,1.05773 4.02515,2.3104 4.738125,4.828375 9.701875,9.449175 14.2234,14.44 1.976475,2.18405 2.888,1.525225 4.5125,-0.12635 4.5125,-4.647875 9.160375,-9.124275 13.663848,-13.763125 2.48188,-2.554075 4.8013,-2.79775 7.2922,-0.1083 1.0108,1.138052 2.08297,2.219247 3.2129,3.239975 3.2851,2.860925 2.83385,5.496225 -0.13537,8.3391 -4.44933,4.2598 -8.664,8.7723 -13.131378,13.01405 -1.805,1.71475 -2.00355,2.7797 -0.08123,4.6208 4.656898,4.5125 9.024998,9.2416 13.627748,13.78117 2.54506,2.50895 2.78872,4.81033 0.0722,7.22 -0.22563,0.19855 -0.4332,0.41515 -0.64078,0.63175 -6.40775,6.55215 -6.40775,6.55215 -12.977943,0 -3.727325,-3.69122 -7.49075,-7.33732 -11.10075,-11.18197 -1.525225,-1.6245 -2.499925,-1.507175 -3.971,0 -4.178575,4.332 -8.46545,8.54667 -12.72525,12.78842 -4.575675,4.56665 -5.514275,4.5125 -10.2163,-0.1444 -0.532475,-0.53247 -1.02885,-1.11007 -1.597425,-1.5884 -3.30315,-2.79775 -3.023375,-5.36085 0.0722,-8.25787 4.5125,-4.214675 8.618875,-8.82645 13.167475,-12.986975 2.3104,-2.11185 1.904275,-3.30315 -0.117325,-5.2345 -4.67495,-4.45835 -9.025,-9.25965 -13.690925,-13.727025 -3.12265,-2.987275 -2.987275,-5.604525 0.1444,-8.312025 2.084775,-1.78695 3.510725,-4.539575 6.37165,-4.954725 z"
   style="fill:#c90709;fill-rule:nonzero;stroke-width:0.90249997"
   id="path5"
   inkscape:connector-curvature="0" />

  <path
   class="tsv-icon-base-fill"
   d="m 112.80449,50.98234 c -2.79775,-1.037875 -4.89155,-2.5992 -7.52685,-2.481875 -1.61547,0.0722 -1.75085,-1.308625 -2.14795,-2.4187 -2.67952,-7.659518 -6.990763,-14.647575 -12.634998,-20.477725 -1.940375,-1.994525 -2.527,-4.214675 -0.315875,-6.3175 2.00355,-1.868175 4.232725,-1.3357 5.9926,0.496375 8.393253,8.608045 14.163833,19.43263 16.633073,31.199425 z"
   style="fill: white;fill-rule:nonzero;stroke-width:0.90249997"
   id="path7"
   inkscape:connector-curvature="0" />
  <path
   class="tsv-icon-base-fill"
   d="m 88.843117,60.63909 c -1.214765,-8.930238 -5.199302,-17.258508 -11.38955,-23.80795 -1.444,-1.5523 -1.110075,-3.727325 0.568575,-5.243525 1.67865,-1.5162 3.61,-1.398875 5.25255,0.12635 5.827443,5.247135 9.896815,12.166602 11.651275,19.809875 0.893475,4.034175 -3.998075,4.96375 -6.08285,9.11525 z"
   style="fill: white;fill-rule:nonzero;stroke-width:0.90249997"
   id="path9"
   inkscape:connector-curvature="0" />

  <path
   d="m 111.70344,80.521165 c -0.76712,3.08655 -0.59565,5.261575 -2.61725,6.3897 -0.24367,0.135375 -1.75085,-1.0469 -1.805,-1.6606 -0.0722,-2.409675 1.96745,-3.113625 4.42225,-4.7291 z"
   style="fill:#446181;fill-rule:nonzero;stroke-width:0.90249997"
   id="path11"
   inkscape:connector-curvature="0" />
</svg>