<?xml version="1.0" encoding="UTF-8" standalone="no"?>
<!DOCTYPE svg PUBLIC "-//W3C//DTD SVG 1.1//EN" "http://www.w3.org/Graphics/SVG/1.1/DTD/svg11.dtd">
<svg class="tsv-icon-audio-input-muted" width="100%" height="100%" viewBox="0 0 22 22" version="1.1" xmlns="http://www.w3.org/2000/svg" xmlns:xlink="http://www.w3.org/1999/xlink" xml:space="preserve" xmlns:serif="http://www.serif.com/" style="fill-rule:evenodd;clip-rule:evenodd;stroke-linecap:round;stroke-linejoin:round;stroke-miterlimit:1.5;">
    <rect id="audio_input_muted" x="0" y="0" width="22" height="22" style="fill:none;"/>
    <g style="fill: white;">
        <path d="M15.316,18.047C15.707,18.256 15.929,18.496 15.929,18.751L15.929,19.628C15.929,20.436 13.7,21.091 10.955,21.091C8.21,21.091 5.981,20.436 5.981,19.628L5.981,18.751C5.981,18.496 6.204,18.256 6.594,18.047C6.771,18.203 6.957,18.349 7.15,18.485C7.051,18.594 6.998,18.709 6.998,18.827C6.998,19.516 8.787,20.075 10.99,20.075C13.193,20.075 14.982,19.516 14.982,18.827C14.982,18.698 14.919,18.573 14.802,18.456C14.98,18.328 15.152,18.192 15.316,18.047Z" class="tsv-icon-base-fill" style=""/>
        <path d="M5.536,9.3C5.536,9.3 5.536,11.045 5.536,13.012C5.536,16.023 7.977,18.464 10.988,18.464C10.989,18.464 10.99,18.464 10.991,18.464C14.002,18.464 16.443,16.023 16.443,13.012C16.443,11.045 16.443,9.3 16.443,9.3" class="tsv-icon-base-stroke" style="fill:none;stroke-width:1px;"/>
        <path d="M6.939,4.953C6.939,2.736 8.738,0.936 10.955,0.936C13.172,0.936 14.972,2.736 14.972,4.953L14.972,13.002C14.972,15.218 13.172,17.018 10.955,17.018C8.738,17.018 6.939,15.218 6.939,13.002L6.939,4.953ZM9.002,4.622C9.002,3.235 10.128,2.109 11.514,2.109C12.901,2.109 14.027,3.235 14.027,4.622L14.027,13.217C14.027,14.604 12.901,15.73 11.514,15.73C10.128,15.73 9.002,14.604 9.002,13.217L9.002,4.622Z" class="tsv-icon-base-fill" style=""/>
    </g>
    <g style="fill: #DF0F0F;">
        <path d="M4.261,15.989C4.051,15.779 4.051,15.439 4.261,15.23L14.816,4.675C15.025,4.466 15.365,4.466 15.575,4.675L16.334,5.434C16.543,5.644 16.543,5.984 16.334,6.193L5.779,16.748C5.57,16.957 5.229,16.957 5.02,16.748L4.261,15.989Z" class="tsv-icon-shaded-bg-fill" style=""/>
        <path d="M5.322,15.928C5.112,15.719 5.112,15.379 5.322,15.169L15.169,5.322C15.379,5.112 15.719,5.112 15.928,5.322L16.687,6.081C16.897,6.29 16.897,6.63 16.687,6.84L6.84,16.687C6.63,16.897 6.29,16.897 6.081,16.687L5.322,15.928Z" class="tsv-icon-error-fill" style=""/>
    </g>
</svg>
