<?xml version="1.0" encoding="UTF-8" standalone="no"?>
<!DOCTYPE svg PUBLIC "-//W3C//DTD SVG 1.1//EN" "http://www.w3.org/Graphics/SVG/1.1/DTD/svg11.dtd">
<svg class="tsv-icon-away" width="100%" height="100%" viewBox="0 0 22 22" version="1.1" xmlns="http://www.w3.org/2000/svg" xmlns:xlink="http://www.w3.org/1999/xlink" xml:space="preserve" xmlns:serif="http://www.serif.com/" style="fill-rule:evenodd;clip-rule:evenodd;stroke-linejoin:round;stroke-miterlimit:2;">
    <rect id="away" x="0" y="-0" width="22" height="22" style="fill:none;"/>
    <g id="backup">
        <path d="M18.03,2C19.117,2 20,2.875 20,3.952L20,17.048C20,18.125 19.117,19 18.03,19L3.97,19C2.883,19 2,18.125 2,17.048L2,3.952C2,2.875 2.883,2 3.97,2L18.03,2ZM17.386,3.01L5.63,3.01C4.718,3.01 3.978,3.743 3.978,4.647L3.978,16.278C3.978,17.182 4.718,17.915 5.63,17.915L17.386,17.915C18.298,17.915 19.038,17.182 19.038,16.278L19.038,4.647C19.038,3.743 18.298,3.01 17.386,3.01Z" class="tsv-icon-base-fill" style=""/>
    </g>
    <g id="label" style="fill: #F75413;">
        <path d="M14,7L15,7L15,10L17,8L17,7L18,7L18,8.5L16,10.5L18,12.5L18,14L17,14L17,13L15,11L15,14L14,14L14,7Z" class="tsv-icon-base-fill" style=""/>
        <path d="M10,7L13,7L13,8L11,8L11,10L13,10L12,11L11,11L11,14L10,14L10,7Z" class="tsv-icon-base-fill" style=""/>
        <path d="M6,7L8,7L9,8L9,14L8,14L8,11L6,11L6,14L5,14L5,8L6,7ZM8,8L6,8L6,10L8,10L8,8Z" class="tsv-icon-base-fill" style=""/>
    </g>
</svg>
